<?xml version="1.0" encoding="utf-8"?>
<!-- Generator: Adobe Illustrator 22.0.1, SVG Export Plug-In . SVG Version: 6.00 Build 0)  -->
<svg version="1.1" id="Calque_1" xmlns="http://www.w3.org/2000/svg" xmlns:xlink="http://www.w3.org/1999/xlink" x="0px" y="0px"
	 viewBox="0 0 680.7 676.9" style="enable-background:new 0 0 680.7 676.9;" xml:space="preserve">
<style type="text/css">
	.st0{fill:#010202;}
	.st1{fill:#FFFFFF;}
</style>
<circle class="st0" cx="340.3" cy="338.4" r="331.5"/>
<g>
	<path class="st1" d="M170.8,261.2h35.4v99.1c0,16.6-5.9,30.9-17.8,42.8c-11.9,11.9-26.1,17.9-42.7,17.9h-46V261.2h35.6v142.2h17.7
		c5,0,9.2-1.8,12.7-5.3c3.5-3.6,5.2-7.7,5.2-12.6V261.2z"/>
	<rect x="431.6" y="260.3" class="st1" width="35.4" height="159.8"/>
	<path class="st1" d="M497.7,420.2V260.3h71.2c9.7,0,18,3.5,24.9,10.6c7,7,10.4,15.4,10.4,25v88.7c0,9.7-3.5,18-10.4,25
		c-7,7-15.3,10.6-24.9,10.6H497.7z M533.3,402.5H551c5,0,9.2-1.8,12.7-5.3c3.5-3.5,5.2-7.7,5.2-12.6v-88.7c0-5-1.7-9.2-5.2-12.7
		c-3.5-3.5-7.7-5.2-12.7-5.2h-17.7V402.5z"/>
	<path class="st1" d="M391.9,311.5c-0.5-4.4-2.4-7.9-5.2-10.9c-9.8-11.1-31.5-15.5-44-28.3c-0.4-0.4-0.6-0.6-0.9-0.8
		c-17.5-17.8-18.7-7.8-41.8-9.1c-23.6-1.2-9.7,16.4-27.3,33.5c-19.3,18.7-25.3,13.1-22.9,39c2,21.3-9.6,40.7,6.9,57.8
		c0.7,0.7,1.4,1.3,2,2c0.3,0.2,0.5,0.4,0.7,0.6c12.6,10.4,24.4,3.3,40.6,7.3c11.7,2.9,23.9,20.5,35.6,18.8
		c17.3-2.4,27.3-26.5,40.4-39.3c11.3-10.9,8.3-20.1,12.1-34.5C391.2,336.4,393.4,323.2,391.9,311.5 M386.1,349.1
		c-3.5,13.7-0.4,22.4-11,32.6c-12.4,12-21.6,34.7-38,36.9c-11,1.4-22.7-15.4-33.9-18.3c-16.5-4.3-28.1,3.6-41.1-9.9
		c-16-16.4-5.2-34.7-7.3-55c-2.5-24.5,3.2-19.2,21.3-36.8c16.5-16,3.1-32.8,25.5-31.5c22.3,1.4,23-8.3,40.6,9.9
		c15.2,15.6,44.5,18.4,47.1,37.8C390.7,325.9,388.8,338.5,386.1,349.1"/>
	<path class="st1" d="M401.7,282.7c-2-5.3-5.3-9.2-9.8-12.2c-15.6-11.1-44.2-10.1-63.6-22.7c-0.6-0.3-1-0.6-1.4-0.7
		c-27.2-17.2-25.9-4.3-55.3,0.9c-30.1,5.4-7.3,23.5-24.4,50.1c-18.7,29.1-28,23.9-17.3,55.8c8.8,26.2-0.1,54,25.7,70.7
		c1.1,0.7,2.2,1.3,3.1,1.9c0.4,0.1,0.8,0.4,1.1,0.6c18.9,9.4,31.7-3.1,53.2-2.8c15.6,0.2,36.1,18.8,50.3,13.2
		c21.1-8.1,26.5-41.3,39.3-61.3c11-17.1,4.5-27.7,5-46.9C408.2,314.3,407,297,401.7,282.7 M405.4,331.7c-0.3,18.2,6,28.3-4.2,44.2
		c-12.1,18.7-16.9,49.9-36.9,57.6c-13.4,5-33.1-12.6-48.1-13c-22-0.5-34.2,12.8-54.6-0.3c-24.9-16-16.7-42-25.4-67
		c-10.3-30.1-1.6-25.1,16-52.5c16.1-25-5.7-42.1,22.8-47c28.5-4.8,26.5-17.2,53.9,0.4c23.7,15.2,61.4,10,70.3,33.6
		C404.4,301.2,405.8,317.6,405.4,331.7"/>
	<path class="st1" d="M376.7,339c0.7-3.1,0.4-6-0.8-8.8c-3.9-10.1-17.7-18.5-22.9-30.5c-0.2-0.3-0.3-0.6-0.4-0.8
		c-7.5-16.6-10.9-10.1-26.3-16.7c-15.9-6.8-10.8,8.8-27.1,16c-17.9,7.9-20.6,2.6-25.5,20.9c-4,15.1-16.8,25.4-9.8,41.3
		c0.3,0.7,0.6,1.3,0.9,1.9c0.1,0.2,0.3,0.4,0.3,0.6c6,10.3,15.9,8.4,25.9,15.2c7.3,5,11.2,20.1,19.6,21.9
		c12.5,2.7,25.3-11.2,37.5-16.7c10.5-4.6,10.7-11.7,17-20.5C369.9,355.8,374.7,347.3,376.7,339 M363.2,363.2
		c-5.8,8.5-5.9,15.2-15.8,19.5c-11.5,5.1-23.5,18.3-35.3,15.6c-7.9-1.8-11.7-16.2-18.6-21.1c-10.2-7.1-20.1-4.6-25.7-17.1
		c-6.8-15.3,5.2-25,8.9-39.5c4.5-17.4,7-12.3,23.9-19.8c15.3-6.8,10.4-21.6,25.4-15.1c14.9,6.6,17.8,0.1,25.3,17
		c6.5,14.5,25.8,23.8,22.7,37.7C372.2,348.5,367.8,356.6,363.2,363.2"/>
	<path class="st1" d="M333.8,309.2c-1.5-1.2-3.2-1.8-5.1-1.9c-6.6-0.5-14.9,4.9-22.9,4.7c-0.2,0-0.4,0-0.5,0
		c-11.1-0.2-8.4,3.3-16.2,10.1c-7.9,7,2,8.3,1.7,19.2c-0.3,12-4,12.1,4.8,19.6c7.3,6.2,9.6,16,20.2,16.3c0.4,0,0.9,0,1.3,0
		c0.1,0,0.3,0,0.4,0c7.3-0.6,8.8-6.6,15.2-10.3c4.7-2.7,14-0.9,17.3-5.1c4.8-6.2,0.5-17,0.7-25.2c0.2-7-3.6-9-6.9-14.8
		C341.3,317.4,337.9,312.5,333.8,309.2 M343.6,323c3.2,5.5,6.8,7.3,6.6,13.9c-0.2,7.7,3.9,17.8-0.7,23.6c-3.1,3.9-12.1,2.2-16.6,4.7
		c-6.6,3.8-7.8,9.9-16.2,9.7c-10.2-0.3-12.4-9.5-19.5-15.3c-8.4-7.1-5-7.1-4.7-18.4c0.3-10.3-9.2-11.4-1.7-18
		c7.6-6.5,4.8-9.8,16.1-9.5c9.7,0.3,20-8,26.8-2.6C337.9,314.2,341.2,318.8,343.6,323"/>
	<path class="st1" d="M327.2,324.6c-0.8-0.6-1.7-0.9-2.6-1c-3.4-0.3-7.7,2.5-11.8,2.4c-0.1,0-0.2,0-0.3,0c-5.8-0.1-4.4,1.7-8.4,5.3
		c-4.1,3.6,1,4.3,0.9,9.9c-0.2,6.2-2.1,6.2,2.5,10.1c3.8,3.2,5,8.3,10.5,8.4c0.2,0,0.4,0,0.7,0c0.1,0,0.2,0,0.2,0
		c3.8-0.3,4.6-3.4,7.9-5.3c2.4-1.4,7.3-0.5,8.9-2.6c2.5-3.2,0.2-8.8,0.4-13c0.1-3.6-1.9-4.7-3.6-7.6
		C331.1,328.8,329.3,326.3,327.2,324.6 M332.2,331.8c1.6,2.8,3.5,3.8,3.4,7.2c-0.1,4,2,9.2-0.3,12.2c-1.6,2-6.2,1.1-8.6,2.4
		c-3.4,2-4.1,5.1-8.4,5c-5.3-0.1-6.4-4.9-10.1-7.9c-4.4-3.7-2.6-3.7-2.4-9.5c0.2-5.3-4.8-5.9-0.9-9.3c3.9-3.4,2.5-5.1,8.3-4.9
		c5,0.1,10.3-4.1,13.9-1.4C329.3,327.2,331,329.6,332.2,331.8"/>
	<path class="st1" d="M324.2,335.7c-0.2-0.3-0.5-0.5-0.9-0.6c-1.2-0.4-3.1,0.2-4.6-0.2c0,0-0.1,0-0.1,0c-2.1-0.6-1.8,0.2-3.6,1.1
		c-1.8,0.9,0,1.7-0.6,3.7c-0.6,2.3-1.4,2.1,0,4c1.1,1.5,1,3.5,3.1,4.1c0.1,0,0.2,0,0.2,0.1c0,0,0.1,0,0.1,0c1.4,0.2,2-0.8,3.4-1.2
		c1-0.3,2.7,0.5,3.5-0.1c1.2-0.9,0.9-3.2,1.4-4.7c0.4-1.3-0.2-1.9-0.6-3.1C325.2,337.6,324.8,336.5,324.2,335.7 M325.4,338.8
		c0.3,1.2,0.9,1.7,0.6,3c-0.4,1.5-0.1,3.6-1.3,4.5c-0.8,0.6-2.4-0.2-3.4,0.1c-1.4,0.4-2,1.5-3.6,1c-1.9-0.5-1.9-2.4-3-3.9
		c-1.3-1.8-0.6-1.6,0-3.7c0.6-1.9-1.2-2.6,0.6-3.5c1.8-0.9,1.4-1.6,3.5-1c1.8,0.5,4.2-0.5,5.2,0.8
		C324.7,336.8,325.2,337.9,325.4,338.8"/>
</g>
</svg>
