<?xml version="1.0" encoding="utf-8"?>
<!-- Generator: Adobe Illustrator 22.0.1, SVG Export Plug-In . SVG Version: 6.00 Build 0)  -->
<svg version="1.1" id="Calque_1" xmlns="http://www.w3.org/2000/svg" xmlns:xlink="http://www.w3.org/1999/xlink" x="0px" y="0px"
	 viewBox="0 0 800 800" style="enable-background:new 0 0 800 800;" xml:space="preserve">
<style type="text/css">
	.st0{fill:#999999;}
	.st1{fill:#333333;stroke:#000000;stroke-width:4.4773;stroke-miterlimit:10;}
	.st2{fill:#5D1D00;stroke:#000000;stroke-width:3.5818;stroke-miterlimit:10;}
	.st3{fill:#999999;stroke:#000000;stroke-width:3.5818;stroke-miterlimit:10;}
	.st4{fill:none;stroke:#000000;stroke-width:3.5813;stroke-miterlimit:10;}
	.st5{fill:#80BDFF;}
	.st6{fill:#A3CFFF;stroke:#000000;stroke-width:4.4773;stroke-miterlimit:10;}
	.st7{fill:#5D8DFF;}
	.st8{fill:#8E3017;}
	.st9{fill:#DDFFA7;}
	.st10{fill:none;stroke:#000000;stroke-width:2.6747;stroke-miterlimit:10;}
	.st11{fill:none;stroke:#000000;stroke-width:3.5818;stroke-miterlimit:10;}
	.st12{fill:none;stroke:#000000;stroke-width:2.6864;stroke-miterlimit:10;}
	.st13{fill:none;stroke:#000000;stroke-width:4.4773;stroke-miterlimit:10;}
</style>
<g>
	<path d="M171,630.2l78.8-21.5l49.3-20.6l21.9-28.2l5.8-30l-1.3-31.8l150.9-100.7L522,547.8l17,5.4l40.3,22.4l81.5,25.1l34.9,36.7
		l5,26.3c61.8-70.4,99.3-162.7,99.3-263.7c0-220.9-179.1-400-400-400S0,179,0,399.9c0,117.7,50.8,223.4,131.7,296.6l2.6-17.1
		L171,630.2z"/>
	<path class="st0" d="M700.7,663.6l-5-26.3l-34.9-36.7l-81.5-25.1L539,553.2l-17-5.4l-45.7-150.4L325.5,498.1l1.3,31.8l-5.8,30
		l-21.9,28.2l-49.3,20.6L171,630.2l-36.7,49.3l-2.6,17.1c71,64.2,165.1,103.4,268.3,103.4C519.9,799.9,627.4,747.2,700.7,663.6z"/>
</g>
<path id="cheveyx_noirs" class="st1" d="M276.8,257.3L258.3,174l34.9-39.4l37.6,10.7l16.1-19.7l46.6,16.1l17-16.1l71.6,28.7
	l52.8,89.5l-3.6,57.3l-11.6,21.5c-22.7,4.2-45.4,8.4-68.1,12.5C393.4,309.2,335.1,283.3,276.8,257.3z"/>
<polygon id="oreilel_marron" class="st2" points="455.3,328.6 515.3,277 528.7,277 528.7,326.2 493.8,397.8 477.5,400.1 "/>
<path class="st3" d="M103.6,838.4"/>
<polyline class="st4" points="700.7,663.6 695.7,637.4 660.8,600.7 604.1,583.2 579.3,575.6 539,553.2 522,547.8 476.4,397.4 
	326.5,497.5 326.8,529.9 321,559.9 299.1,588.1 249.8,608.7 171,630.2 134.3,679.5 131.7,696.5 "/>
<path id="bleur_clair" class="st5" d="M385.5,494.6c-20,4.2-40,8.4-60,12.5c0.3,7.8,0.6,15.5,0.9,23.3c-1.8,9.9-3.6,19.7-5.4,29.6
	c0.6,5.1,1.2,10.1,1.8,15.2c9.6,6.9,19.1,13.7,28.7,20.6c15.5,1.8,31,3.6,46.6,5.4c9-2.4,17.9-4.8,26.9-7.2
	C411.7,560.8,398.6,527.7,385.5,494.6z"/>
<path id="visage_bleu_clair" class="st6" d="M458.9,285c-32.2-32.8-64.5-65.7-96.7-98.5c-26.9,7.8-53.7,15.5-80.6,23.3
	c-2.4,23.6-4.8,47.2-7.2,70.7c1.5,9.3,3,18.5,4.5,27.8c-7.2,14.9-14.3,29.8-21.5,44.8c9.9,18.2,19.7,36.4,29.6,54.6
	c1.5,9.9,3,19.7,4.5,29.6c12.5,22.4,25.1,44.8,37.6,67.2c19.1-3.9,38.2-7.8,57.3-11.6c29.8-31.6,59.7-63.3,89.5-94.9
	c-8.7-29-17.3-57.9-26-86.9C452.9,302.3,455.9,293.7,458.9,285z"/>
<path id="bleu_foncé" class="st7" d="M350.1,240.2c3.6,9.6,7.2,19.1,10.7,28.7c-7.5,5.1-14.9,10.1-22.4,15.2c0,26.6,0,53.1,0,79.7
	c6.9,3.3,13.7,6.6,20.6,9.9c0.3-13.4,0.6-26.9,0.9-40.3c3.9,3.9,7.8,7.8,11.6,11.6c3.3,1.5,6.6,3,9.9,4.5c-3,12.5-6,25.1-9,37.6
	c-0.6,15.8-1.2,31.6-1.8,47.5c-14.6,5.8-29.3,11.6-43.9,17.5c3.6,2.8,7.2,5.7,10.7,8.5c-6.9,6.1-13.7,12.2-20.6,18.4
	c4.8,8.5,9.6,17,14.3,25.5c18.2-3.3,36.4-6.6,54.6-9.9c13.1,33.1,26.3,66.3,39.4,99.4c18.8-7.8,37.6-15.5,56.4-23.3
	c11.3-11.9,22.7-23.9,34-35.8C494,460.2,472.2,385.6,450.4,311c3-8.7,6-17.3,9-26c-32.2-32.8-64.5-65.7-96.7-98.5
	C358.4,204.4,354.3,222.3,350.1,240.2z"/>
<path id="marron" class="st8" d="M385.9,495c13.1-14.3,26.3-28.7,39.4-43c20.4,39.5,40.9,79.1,61.3,118.6
	c27.6,0.4,55.2,0.9,82.8,1.3c-10.3-6.1-20.6-12.2-30.9-18.4c-6.6-5.4-13.1-10.7-19.7-16.1c-23-75.5-46-151-69-226.6
	C428.6,372.3,407.3,433.7,385.9,495z"/>
<path id="jaune" class="st9" d="M274.4,280.5c1.5,9,3,17.9,4.5,26.9c-7.2,15.2-14.3,30.4-21.5,45.7c9.9,18.2,19.7,36.4,29.6,54.6
	c1.5,9.9,3,19.7,4.5,29.6c3,5.4,6,10.7,9,16.1c3-3.3,6-6.6,9-9.9c6,2.4,11.9,4.8,17.9,7.2c7.5-1.5,14.9-3,22.4-4.5
	c-9.6-14-19.1-28.1-28.7-42.1c-9.9-3-19.7-6-29.6-9c8.1-32.8,16.1-65.7,24.2-98.5c-10.4-7.2-20.9-14.3-31.3-21.5
	C281,277,277.7,278.7,274.4,280.5z"/>
<ellipse id="trou_de_nez" transform="matrix(0.9138 -0.4061 0.4061 0.9138 -128.2274 170.8599)" cx="338.5" cy="387.5" rx="11.2" ry="4.9"/>
<g>
	<g>
		<line class="st10" x1="416.8" y1="319.9" x2="376.5" y2="294.9"/>
		<line class="st10" x1="354.1" y1="307.4" x2="376.5" y2="294.9"/>
	</g>
	<g>
		<line class="st11" x1="408.3" y1="323.1" x2="378.7" y2="336.5"/>
		<line class="st11" x1="359.9" y1="315" x2="380.5" y2="336.5"/>
	</g>
</g>
<line class="st11" x1="385" y1="307" x2="382.3" y2="317.7"/>
<g id="oeil_gauche">
	<g>
		<line class="st10" x1="304" y1="311.9" x2="290.5" y2="298.4"/>
		<line class="st11" x1="306.2" y1="327.6" x2="280.2" y2="323.1"/>
		<line class="st10" x1="281.6" y1="304.7" x2="300.4" y2="290.4"/>
	</g>
	<ellipse cx="289.6" cy="307.9" rx="3.1" ry="7.2"/>
	<line class="st12" x1="299.1" y1="307" x2="298.2" y2="320.4"/>
</g>
<path id="visage_contour" class="st13" d="M458.9,285c-32.2-32.8-64.5-65.7-96.7-98.5c-26.9,7.8-53.7,15.5-80.6,23.3
	c-2.4,23.6-4.8,47.2-7.2,70.7c1.5,9.3,3,18.5,4.5,27.8c-7.2,14.9-14.3,29.8-21.5,44.8c9.9,18.2,19.7,36.4,29.6,54.6
	c1.5,9.9,3,19.7,4.5,29.6c12.5,22.4,25.1,44.8,37.6,67.2c19.1-3.9,38.2-7.8,57.3-11.6c29.8-31.6,59.7-63.3,89.5-94.9
	c-8.7-29-17.3-57.9-26-86.9C452.9,302.3,455.9,293.7,458.9,285z"/>
<polyline id="lobe" class="st13" points="481.3,322.6 467.8,335.2 481.3,335.2 486.6,345.9 481.3,364.7 481.3,374.6 492,371 
	501.9,360.2 "/>
<polyline id="nez_artie_gauche" class="st12" points="328.2,406.8 291.4,395.2 315.6,297.6 286,276.4 278,280.5 "/>
<polyline id="nez_partie_doirte" class="st10" points="337.1,364.3 337.1,286.4 365.8,269.3 438.3,289 "/>
<path id="nez_partie_droite" class="st10" d="M355.9,392.5c0,0,10.7-26.9-19.7-27.8"/>
<path id="contour_cou" class="st11" d="M325.9,506.6l60-12.5l90.4-96.7l41.7,137.5l21,18.3c-19.4,5.7-38.8,11.3-58.2,17l-55.5,23.3
	l-26.9,7.2l-46.6-5.4l-28.7-20.6l-3.6-13.1l7.2-31.7L325.9,506.6z"/>
<g id="bouche">
	<polygon class="st10" points="303.1,432.8 318.3,426.5 325.5,430.1 334.4,429.2 349.6,446.2 327.3,450.7 309.3,443.5 309.3,434.6 	
		"/>
	<line class="st10" x1="348.7" y1="445.3" x2="303.1" y2="432.8"/>
</g>
<polygon class="st11" points="374.3,314.1 381.4,300.7 390.4,306.1 396.7,313.2 383.2,326.7 "/>
</svg>
