<?xml version="1.0" encoding="utf-8"?>
<!-- Generator: Adobe Illustrator 22.0.1, SVG Export Plug-In . SVG Version: 6.00 Build 0)  -->
<svg version="1.1" id="Calque_1" xmlns="http://www.w3.org/2000/svg" xmlns:xlink="http://www.w3.org/1999/xlink" x="0px" y="0px"
	 viewBox="0 0 86.2 86.2" style="enable-background:new 0 0 86.2 86.2;" xml:space="preserve">
<style type="text/css">
	.st0{fill:#F0F0F0;}
</style>
<title>Fichier 3</title>
<g id="Calque_2_1_">
	<g id="Calque_1-2">
		<path class="st0" d="M35.2,39.1c0.9-0.6,1.4-1.6,1.2-2.7c0.1-1.2-0.5-2.4-1.7-2.8c-1.2-0.4-2.4-0.5-3.6-0.5h-5.7v6.8H32
			C33.1,39.9,34.2,39.6,35.2,39.1z"/>
		<path class="st0" d="M35.1,45.5c-1-0.4-2-0.6-3.1-0.5h-6.6v8.2H32c1.1,0.1,2.1-0.1,3.1-0.5c1.3-0.7,2-1.9,2-3.8
			C37.2,47.3,36.4,46,35.1,45.5z"/>
		<path class="st0" d="M43.1,0C19.3,0,0,19.3,0,43.1s19.3,43.1,43.1,43.1s43.1-19.3,43.1-43.1l0,0C86.2,19.3,66.9,0,43.1,0z
			 M50.6,29H63v3.1H50.6V29z M42.2,54.1c-0.6,0.9-1.3,1.8-2.2,2.4c-1,0.8-2.2,1.3-3.5,1.5c-1.4,0.3-2.9,0.4-4.3,0.4H18.4V27.7h14.9
			c3.7,0.1,6.4,1.1,8,3.3c1,1.4,1.5,3,1.4,4.7c0.1,1.6-0.4,3.2-1.4,4.5c-0.7,0.7-1.5,1.3-2.3,1.8c1.5,0.5,2.7,1.4,3.5,2.7
			c0.8,1.4,1.2,2.9,1.2,4.5C43.6,50.9,43.1,52.6,42.2,54.1z M67.8,48.1h-16c0.1,2.2,0.9,3.8,2.3,4.6c1,0.6,2.1,0.9,3.2,0.8
			c1.8,0.1,3.6-0.9,4.4-2.5h5.9c-0.3,1.5-1,2.9-2.1,4c-2,2.1-4.7,3.2-8.3,3.2c-2.8,0-5.6-0.9-7.8-2.7c-2.2-1.8-3.4-4.8-3.4-8.8
			c0-3.8,1-6.8,3-8.8c2.1-2.1,4.9-3.2,7.9-3.1c1.8,0,3.5,0.3,5.2,1c1.6,0.7,2.9,1.8,3.8,3.3c0.9,1.4,1.5,2.9,1.8,4.6
			C67.8,45.2,67.9,46.7,67.8,48.1z"/>
		<path class="st0" d="M56.9,39.6c-1.3-0.1-2.5,0.4-3.4,1.3c-0.9,0.9-1.4,2.1-1.5,3.4h9.9c0-1.3-0.6-2.6-1.5-3.5
			C59.3,40,58.1,39.6,56.9,39.6z"/>
	</g>
</g>
</svg>
