<?xml version="1.0" encoding="utf-8"?>
<!-- Generator: Adobe Illustrator 22.0.1, SVG Export Plug-In . SVG Version: 6.00 Build 0)  -->
<svg version="1.1" id="Calque_1" xmlns="http://www.w3.org/2000/svg" xmlns:xlink="http://www.w3.org/1999/xlink" x="0px" y="0px"
	 viewBox="0 0 86.2 86.2" style="enable-background:new 0 0 86.2 86.2;" xml:space="preserve">
<style type="text/css">
	.st0{fill:#F0F0F0;}
</style>
<title>Fichier 2</title>
<g id="Calque_2_1_">
	<g id="Calque_1-2">
		<path class="st0" d="M33.8,23.4c-6.2,2.9-10.6,8.5-12,15.2c6.8,0,13.5-0.9,20.1-2.6C39.4,31.7,36.8,27.5,33.8,23.4z"/>
		<path class="st0" d="M46.8,46.7C34.6,51,30.1,59.5,29.8,60.3c6.2,4.9,14.6,5.9,21.8,2.8C50.6,57.5,49,52,47,46.6
			C46.9,46.7,46.9,46.7,46.8,46.7z"/>
		<path class="st0" d="M57.5,26.9c-4-3.5-9.1-5.5-14.4-5.5c-1.7,0-3.4,0.2-5.1,0.6c3,4.1,5.7,8.3,8.1,12.7
			C53.8,31.8,57.1,27.4,57.5,26.9z"/>
		<path class="st0" d="M44.6,43.3c0.3-0.1,0.6-0.2,0.9-0.2c-0.6-1.2-1.1-2.5-1.8-3.7c-7.3,2.1-14.8,3.1-22.3,3.1v0.7
			c0,5.4,2,10.5,5.6,14.5C27.4,56.8,33.4,46.9,44.6,43.3z"/>
		<path class="st0" d="M43.1,0C19.3,0,0,19.3,0,43.1s19.3,43.1,43.1,43.1s43.1-19.3,43.1-43.1l0,0C86.2,19.3,66.9,0,43.1,0z
			 M43.1,68.5c-14.1,0-25.5-11.4-25.5-25.5S29,17.6,43.1,17.6S68.5,29,68.5,43.1C68.5,57.1,57.1,68.5,43.1,68.5z"/>
		<path class="st0" d="M51,45.6c1.8,5,3.3,10.2,4.2,15.5c5-3.3,8.4-8.6,9.3-14.6C60.1,45.3,55.5,45,51,45.6z"/>
		<path class="st0" d="M47.8,37.9c0.5,1,1,2.1,1.4,3.1c0.2,0.4,0.3,0.8,0.5,1.1c5-0.5,10.1-0.3,15.1,0.7c0-4.9-1.8-9.7-4.9-13.5
			C59.4,30,55.8,34.7,47.8,37.9z"/>
	</g>
</g>
</svg>
