<svg xmlns="http://www.w3.org/2000/svg" viewBox="0 0 87.435 86.184"><defs><style>.cls-1,.cls-2{fill:#1e1e1e;}.cls-1{fill-rule:evenodd;}</style></defs><title>Fichier 4</title><g id="Calque_2" data-name="Calque 2"><g id="Calque_1-2" data-name="Calque 1"><path class="cls-1" d="M43.718,0C19.576,0,0,19.78,0,44.183A44.154,44.154,0,0,0,29.9,86.108c2.185.409,2.987-.959,2.987-2.126,0-1.053-.04-4.534-.059-8.226C20.662,78.429,18.1,70.543,18.1,70.543c-1.989-5.106-4.854-6.465-4.854-6.465-3.967-2.742.3-2.685.3-2.685,4.39.311,6.7,4.553,6.7,4.553,3.9,6.754,10.228,4.8,12.723,3.673A9.45,9.45,0,0,1,35.74,63.71c-9.71-1.116-19.918-4.905-19.918-21.835a17.2,17.2,0,0,1,4.505-11.859c-.454-1.113-1.951-5.607.423-11.693,0,0,3.671-1.187,12.025,4.529a41.042,41.042,0,0,1,21.9,0c8.344-5.716,12.01-4.529,12.01-4.529,2.38,6.086.883,10.58.429,11.693a17.165,17.165,0,0,1,4.5,11.859c0,16.97-10.227,20.706-19.962,21.8,1.568,1.372,2.965,4.06,2.965,8.182,0,5.912-.05,10.67-.05,12.125,0,1.176.787,2.554,3,2.12A44.148,44.148,0,0,0,87.435,44.183C87.435,19.78,67.862,0,43.718,0Z"/><path class="cls-2" d="M16.558,63.437c-.1.22-.438.286-.749.135s-.495-.444-.392-.664.436-.289.752-.138.5.447.389.667Z"/><path class="cls-2" d="M18.329,65.433c-.208.195-.616.1-.893-.2a.681.681,0,0,1-.128-.918c.215-.2.61-.1.9.2s.342.72.124.918Z"/><path class="cls-2" d="M20.053,67.977c-.268.189-.706.013-.977-.38s-.268-.865.006-1.054.7-.018.977.371.268.871-.006,1.063Z"/><path class="cls-2" d="M22.414,70.436c-.239.267-.75.195-1.123-.169a.855.855,0,0,1-.249-1.129c.243-.267.756-.192,1.133.169s.494.865.239,1.129Z"/><path class="cls-2" d="M25.672,71.864c-.106.345-.6.5-1.092.355s-.818-.556-.719-.906.6-.512,1.1-.355.818.553.715.906Z"/><path class="cls-2" d="M29.25,72.128c.012.364-.408.667-.928.673s-.945-.283-.951-.642.411-.666.933-.675.946.282.946.644Z"/><path class="cls-2" d="M32.579,71.556c.062.355-.3.72-.815.817s-.977-.126-1.042-.478.3-.729.812-.824.979.123,1.045.485Z"/></g></g></svg>