<svg xmlns="http://www.w3.org/2000/svg" viewBox="0 0 86.184 86.184"><defs><style>.cls-1{fill:#1e1e1e;}</style></defs><title>Fichier 3</title><g id="Calque_2" data-name="Calque 2"><g id="Calque_1-2" data-name="Calque 1"><path class="cls-1" d="M35.228,39.076a2.907,2.907,0,0,0,1.248-2.7,2.753,2.753,0,0,0-1.653-2.838,11.6,11.6,0,0,0-3.631-.482H25.466v6.787h6.51A6.161,6.161,0,0,0,35.228,39.076Z"/><path class="cls-1" d="M35.146,45.453a7.706,7.706,0,0,0-3.077-.521h-6.6v8.2h6.5a7.232,7.232,0,0,0,3.115-.539c1.346-.671,2.02-1.947,2.02-3.842A3.3,3.3,0,0,0,35.146,45.453Z"/><path class="cls-1" d="M43.092,0A43.092,43.092,0,1,0,86.184,43.092,43.092,43.092,0,0,0,43.092,0Zm7.54,28.987H63.021v3.077H50.632ZM42.217,54.1a8.508,8.508,0,0,1-2.176,2.416,8.409,8.409,0,0,1-3.471,1.545,21.493,21.493,0,0,1-4.344.415H18.372V27.711H33.228c3.745.061,6.4,1.146,7.968,3.276a7.827,7.827,0,0,1,1.407,4.7,6.848,6.848,0,0,1-1.422,4.529,7.245,7.245,0,0,1-2.342,1.75,6.834,6.834,0,0,1,3.546,2.718,8.128,8.128,0,0,1,1.2,4.506A8.969,8.969,0,0,1,42.217,54.1ZM67.806,48.12H51.763q.132,3.321,2.3,4.649a5.8,5.8,0,0,0,3.176.827,4.472,4.472,0,0,0,4.381-2.523H67.5a7.16,7.16,0,0,1-2.135,3.983q-2.956,3.215-8.287,3.217a12.027,12.027,0,0,1-7.763-2.712q-3.354-2.718-3.359-8.827,0-5.735,3.032-8.785a10.624,10.624,0,0,1,7.883-3.056,12.571,12.571,0,0,1,5.182,1.03,8.924,8.924,0,0,1,3.8,3.263,10.883,10.883,0,0,1,1.757,4.558A28.829,28.829,0,0,1,67.806,48.12Z"/><path class="cls-1" d="M56.874,39.643a4.569,4.569,0,0,0-3.438,1.264A5.941,5.941,0,0,0,51.9,44.318h9.928a4.811,4.811,0,0,0-1.54-3.482A5.021,5.021,0,0,0,56.874,39.643Z"/></g></g></svg>