<svg xmlns="http://www.w3.org/2000/svg" viewBox="0 0 86.184 86.184"><defs><style>.cls-1{fill:#1e1e1e;}</style></defs><title>Fichier 2</title><g id="Calque_2" data-name="Calque 2"><g id="Calque_1-2" data-name="Calque 1"><path class="cls-1" d="M33.843,23.433A21.849,21.849,0,0,0,21.8,38.647,81.546,81.546,0,0,0,41.905,36,137.534,137.534,0,0,0,33.843,23.433Z"/><path class="cls-1" d="M46.819,46.681C34.56,50.961,30.143,59.465,29.756,60.266A21.683,21.683,0,0,0,51.6,63.11a89.883,89.883,0,0,0-4.638-16.484C46.9,46.654,46.875,46.654,46.819,46.681Z"/><path class="cls-1" d="M57.505,26.857A21.7,21.7,0,0,0,43.092,21.39a22.089,22.089,0,0,0-5.108.58A117.309,117.309,0,0,1,46.1,34.7C53.832,31.8,57.118,27.409,57.505,26.857Z"/><path class="cls-1" d="M44.583,43.313c.276-.083.58-.166.856-.249-.552-1.242-1.132-2.485-1.767-3.7a79.426,79.426,0,0,1-22.337,3.092v.663a21.7,21.7,0,0,0,5.577,14.523C27.409,56.814,33.373,46.93,44.583,43.313Z"/><path class="cls-1" d="M43.092,0A43.092,43.092,0,1,0,86.184,43.092,43.092,43.092,0,0,0,43.092,0Zm0,68.549A25.457,25.457,0,1,1,68.549,43.092,25.464,25.464,0,0,1,43.092,68.549Z"/><path class="cls-1" d="M50.989,45.632a93.516,93.516,0,0,1,4.224,15.49,21.559,21.559,0,0,0,9.305-14.551A31.743,31.743,0,0,0,50.989,45.632Z"/><path class="cls-1" d="M47.786,37.929c.5,1.021.994,2.1,1.436,3.147.165.387.3.774.469,1.132a51.33,51.33,0,0,1,15.13.691A21.641,21.641,0,0,0,59.907,29.37C59.437,29.977,55.793,34.671,47.786,37.929Z"/></g></g></svg>