<?xml version="1.0" encoding="utf-8"?>
<!-- Generator: Adobe Illustrator 22.0.1, SVG Export Plug-In . SVG Version: 6.00 Build 0)  -->
<svg version="1.1" id="Calque_1" xmlns="http://www.w3.org/2000/svg" xmlns:xlink="http://www.w3.org/1999/xlink" x="0px" y="0px"
	 viewBox="0 0 87.4 86.2" style="enable-background:new 0 0 87.4 86.2;" xml:space="preserve">
<style type="text/css">
	.st0{fill:#F0F0F0;}
</style>
<title>Fichier 4</title>
<g id="Calque_2_1_">
	<g id="Calque_1-2">
		<path class="st0" d="M43.7,0C19.6,0,0,19.8,0,44.2C-0.1,63.1,12,80,29.9,86.1c2.2,0.4,3-1,3-2.1c0-1.1,0-4.5-0.1-8.2
			c-12.2,2.7-14.7-5.2-14.7-5.2c-2-5.1-4.9-6.5-4.9-6.5c-4-2.7,0.3-2.7,0.3-2.7c4.4,0.3,6.7,4.6,6.7,4.6c3.9,6.8,10.2,4.8,12.7,3.7
			c0.2-2.2,1.2-4.3,2.8-5.9c-9.7-1.1-19.9-4.9-19.9-21.8c-0.1-4.4,1.5-8.6,4.5-11.9c-0.5-1.1-2-5.6,0.4-11.7c0,0,3.7-1.2,12,4.5
			c7.2-2,14.7-2,21.9,0c8.3-5.7,12-4.5,12-4.5c2.4,6.1,0.9,10.6,0.4,11.7c3,3.2,4.6,7.5,4.5,11.9c0,17-10.2,20.7-20,21.8
			c1.6,1.4,3,4.1,3,8.2c0,5.9,0,10.7,0,12.1c0,1.2,0.8,2.6,3,2.1c17.9-6.1,29.9-23,29.9-41.9C87.4,19.8,67.9,0,43.7,0z"/>
		<path class="st0" d="M16.6,63.4c-0.1,0.2-0.4,0.3-0.7,0.1s-0.5-0.4-0.4-0.7s0.4-0.3,0.8-0.1S16.7,63.2,16.6,63.4z"/>
		<path class="st0" d="M18.3,65.4c-0.2,0.2-0.6,0.1-0.9-0.2c-0.3-0.2-0.3-0.6-0.1-0.9c0.2-0.2,0.6-0.1,0.9,0.2S18.5,65.2,18.3,65.4
			L18.3,65.4z"/>
		<path class="st0" d="M20.1,68c-0.3,0.2-0.7,0-1-0.4s-0.3-0.9,0-1.1s0.7,0,1,0.4S20.3,67.8,20.1,68z"/>
		<path class="st0" d="M22.4,70.4c-0.2,0.3-0.8,0.2-1.1-0.2c-0.4-0.3-0.5-0.7-0.2-1.1c0.2-0.3,0.8-0.2,1.1,0.2S22.7,70.2,22.4,70.4z
			"/>
		<path class="st0" d="M25.7,71.9c-0.1,0.3-0.6,0.5-1.1,0.4s-0.8-0.6-0.7-0.9s0.6-0.5,1.1-0.4S25.8,71.5,25.7,71.9L25.7,71.9z"/>
		<path class="st0" d="M29.3,72.1c0,0.4-0.4,0.7-0.9,0.7s-0.9-0.3-1-0.6s0.4-0.7,0.9-0.7S29.3,71.8,29.3,72.1z"/>
		<path class="st0" d="M32.6,71.6c0.1,0.4-0.3,0.7-0.8,0.8s-1-0.1-1-0.5s0.3-0.7,0.8-0.8C32,71,32.5,71.2,32.6,71.6z"/>
	</g>
</g>
</svg>
