<?xml version="1.0" encoding="utf-8"?>
<!-- Generator: Adobe Illustrator 22.0.1, SVG Export Plug-In . SVG Version: 6.00 Build 0)  -->
<svg version="1.1" id="Calque_1" xmlns="http://www.w3.org/2000/svg" xmlns:xlink="http://www.w3.org/1999/xlink" x="0px" y="0px"
	 viewBox="0 0 86.2 86.2" style="enable-background:new 0 0 86.2 86.2;" xml:space="preserve">
<style type="text/css">
	.st0{fill:#F0F0F0;}
</style>
<title>Fichier 5</title>
<g id="Calque_2_1_">
	<g id="Calque_1-2">
		<path class="st0" d="M43.1,0C19.3,0,0,19.3,0,43.1s19.3,43.1,43.1,43.1s43.1-19.3,43.1-43.1l0,0C86.2,19.3,66.9,0,43.1,0z
			 M31.8,63.8h-8.2V36.2h8.2V63.8z M27.6,33.2c-2.7-0.1-5.5-3-5.3-5.6c0.4-2.8,2.7-5,5.5-5.2c2.7,0.1,5.5,3,5.3,5.6
			C32.7,30.8,30.4,33,27.6,33.2z M63.8,63.7h-8.6c0-5.2,0.1-10.3,0-15.3c-0.1-4.1-2.4-6.3-5.8-5.4c-2.9,0.8-3.7,3.1-3.7,5.7
			c-0.1,4.1-0.1,8.1-0.1,12.2c0,0.9,0,1.8,0,2.9h-8.3V36.2h7.7c0.1,1.1,0.1,2.2,0.2,3.8c1.9-2.9,5.1-4.6,8.6-4.6
			c6.2,0,9.5,3.2,9.9,10c0.3,5.2,0.1,10.4,0.1,15.6C63.8,61.9,63.8,62.7,63.8,63.7z"/>
	</g>
</g>
</svg>
