<svg xmlns="http://www.w3.org/2000/svg" viewBox="0 0 86.184 86.184"><defs><style>.cls-1{fill:#1e1e1e;}</style></defs><title>Fichier 5</title><g id="Calque_2" data-name="Calque 2"><g id="Calque_1-2" data-name="Calque 1"><path class="cls-1" d="M43.092,0A43.092,43.092,0,1,0,86.184,43.092,43.092,43.092,0,0,0,43.092,0ZM31.822,63.775H23.638V36.224h8.184ZM27.621,33.2c-2.709-.058-5.459-2.97-5.31-5.624a5.946,5.946,0,0,1,5.479-5.171c2.709.058,5.459,2.97,5.31,5.624A5.945,5.945,0,0,1,27.621,33.2ZM63.8,63.733H55.228c0-5.183.08-10.268-.025-15.349-.085-4.124-2.438-6.3-5.785-5.418-2.853.752-3.656,3.121-3.732,5.707-.12,4.066-.058,8.137-.072,12.206,0,.92,0,1.839,0,2.889H37.286V36.227h7.662c.056,1.112.112,2.2.194,3.825A9.937,9.937,0,0,1,53.759,35.5c6.178.05,9.513,3.209,9.944,9.956.332,5.184.088,10.4.1,15.609C63.805,61.9,63.8,62.731,63.8,63.733Z"/></g></g></svg>