<?xml version="1.0" encoding="utf-8"?>
<!-- Generator: Adobe Illustrator 22.0.1, SVG Export Plug-In . SVG Version: 6.00 Build 0)  -->
<svg version="1.1" id="Calque_1" xmlns="http://www.w3.org/2000/svg" xmlns:xlink="http://www.w3.org/1999/xlink" x="0px" y="0px"
	 viewBox="0 0 86.2 86.2" style="enable-background:new 0 0 86.2 86.2;" xml:space="preserve">
<style type="text/css">
	.st0{fill:#F0F0F0;}
</style>
<title>Fichier 1</title>
<g id="Calque_2_1_">
	<g id="Calque_1-2">
		<path class="st0" d="M43.1,0C19.3,0,0,19.3,0,43.1s19.3,43.1,43.1,43.1s43.1-19.3,43.1-43.1l0,0C86.2,19.3,66.9,0,43.1,0z
			 M65.6,59.4H20.8c-1,0-1.8-0.7-2-1.7V31.6l22,17.2c1.8,1.4,4.3,1.4,6.1,0l20.7-16.4l0.1,25.2C67.5,57.6,67.1,59.3,65.6,59.4z
			 M67.3,29.1c-0.3,0.5-0.8,0.8-1.2,1.2l-1.8,1.3c-0.6,0.4-1.1,0.8-1.7,1.3L62,33.3l-0.3,0.2c0,0-0.2,0.2-0.3,0.2l-11.1,8.6
			c-2,1.6-3.6,3.1-5.6,4.7c-0.8,0.7-2.1,0-2.1,0c-0.9-0.7-1.8-1.4-2.6-2.1l-10.4-8.2l-5.2-4.1l-2-1.6c-0.7-0.6-1.5-1.1-2.2-1.7
			c-0.3-0.3-0.5-0.6-0.6-1c-0.1-0.4,0.1-0.9,0.4-1.2c0.3-0.2,0.7-0.4,1.1-0.4c0.3,0,0.6,0,0.9,0c0.9,0,1.8,0,2.6,0l10.4,0l13.2,0
			l11.8,0l4,0c1,0,2.7-0.3,3.3,0.6C67.6,27.9,67.6,28.6,67.3,29.1z"/>
	</g>
</g>
</svg>
