<svg xmlns="http://www.w3.org/2000/svg" viewBox="0 0 86.184 86.184"><defs><style>.cls-1{fill:#1e1e1e;}</style></defs><title>Fichier 1</title><g id="Calque_2" data-name="Calque 2"><g id="Calque_1-2" data-name="Calque 1"><path class="cls-1" d="M43.092,0A43.092,43.092,0,1,0,86.184,43.092,43.092,43.092,0,0,0,43.092,0Zm22.53,59.383H20.753a2.222,2.222,0,0,1-2.05-1.651V31.642L40.662,48.881a4.834,4.834,0,0,0,6.051,0L67.37,32.468l.106,25.156S67.11,59.284,65.622,59.383Zm1.639-30.317a4.983,4.983,0,0,1-1.239,1.162l-1.806,1.341c-.559.415-1.108.847-1.653,1.271l-.609.473-.316.247c-.05.039-.208.208-.268.208l-11.1,8.641c-2.012,1.566-3.629,3.139-5.641,4.7-.762.73-2.066-.008-2.066-.008-.873-.7-1.76-1.386-2.64-2.078L29.545,36.863l-5.23-4.116-2.049-1.614c-.722-.568-1.548-1.076-2.221-1.681a1.741,1.741,0,0,1-.59-1.005,1.312,1.312,0,0,1,.423-1.156,1.8,1.8,0,0,1,1.147-.353c.309-.012.62.006.888,0,.875-.006,1.75.006,2.625,0l10.385-.027,13.168-.034,11.762-.031,4.044-.011c.979,0,2.735-.278,3.343.621A1.509,1.509,0,0,1,67.261,29.066Z"/></g></g></svg>