<svg xmlns="http://www.w3.org/2000/svg" viewBox="0 0 1900 1900"><title>Fichier 1</title><g id="Calque_2" data-name="Calque 2"><g id="Calque_1-2" data-name="Calque 1"><g id="reveillelarue_logo"><circle cx="950" cy="950" r="950"/><path d="M767.653,1068.175h65.662l-30.306,172.794a.887.887,0,0,0,.4.8,2.814,2.814,0,0,0,1.463.266c.531,0,1.328.046,2.391.133s2.214.224,3.456.4a9.629,9.629,0,0,0,1.729.4,13.868,13.868,0,0,0,1.993.133h4.254a17.467,17.467,0,0,0,2.126.4,16.639,16.639,0,0,0,2.127.132h2.126a2.611,2.611,0,0,0,1.2.266h3.323a.234.234,0,0,0,.266.266h1.595a2.125,2.125,0,0,0,.931.266h3.056a9.744,9.744,0,0,1,1.595.133,9.44,9.44,0,0,0,1.6.132,4.573,4.573,0,0,0,1.33.4,9.319,9.319,0,0,0,1.594.133,25.482,25.482,0,0,0,2.792.4,17.732,17.732,0,0,1,2.526.4q1.327.269,2.126.4a9.537,9.537,0,0,0,1.6.133,2.948,2.948,0,0,0,1.329.266v.531a.769.769,0,0,0-.266.532v.8a9.679,9.679,0,0,0-.4,1.728q-.138.935-.4,2.259a25.8,25.8,0,0,0-.4,2.792,10.028,10.028,0,0,1-.664,2.791q-.268,1.333-.533,2.792c-.178.976-.357,1.906-.531,2.791v.532q-.267,1.594-.532,3.19c-.178,1.063-.357,2.039-.531,2.924s-.357,1.728-.532,2.525-.357,1.641-.531,2.526-.357,1.64-.533,2.26a5.683,5.683,0,0,0-.265,1.461,1.074,1.074,0,0,0-.266.8H743.993Z" style="fill:#9e120b"/><path d="M888.609,1085.188H945.5l2.659-18.077H1007.7l-19.672,212.67H936.991v-43.6l-26.584,2.392-15.152,41.2-42.535.266Zm25.785,122.817,25.521-.8,2.392-93.574Z" style="fill:#9e120b"/><path d="M1085.358,1105.125l58.484-3.455c0,.357-.045.931-.133,1.728a27.851,27.851,0,0,1-.664,3.323q-.269,1.863-.8,5.05t-1.064,7.445q-.537,4.254-1.2,8.639t-1.463,8.906q-.8,4.785-1.462,9.569t-1.2,10.1a1.63,1.63,0,0,0-.4.666,2.847,2.847,0,0,0-.133.93v1.063a.9.9,0,0,0-.267.664v1.994q-.534,3.459-1.063,7.045t-1.063,7.045q-.535,3.457-.93,6.778t-.931,6.514q-.267,3.457-.665,6.38t-.93,5.582q-.269,2.659-.531,5.051t-.532,4.519q3.72-6.113,7.045-11.829t6.513-10.766q3.189-5.316,6.379-10.235t6.115-9.172q2.922-4.518,5.051-8.64a52.475,52.475,0,0,0,3.456-8.374,66.666,66.666,0,0,0,2.126-7.974,39.253,39.253,0,0,0,.8-7.71v-2.392a.758.758,0,0,1-.265-.532v-1.33c-.178-.174-.266-.307-.266-.4v-1.2c-.178-.174-.266-.308-.266-.4v-.4a7.016,7.016,0,0,1-.4-.931,2.1,2.1,0,0,1-.132-.664,6.879,6.879,0,0,1-.4-.93,2.845,2.845,0,0,1-.133-.931,6.806,6.806,0,0,1-.4-.93,2.11,2.11,0,0,1-.132-.665,6.632,6.632,0,0,1-.4-.93,1.738,1.738,0,0,0-.4-.664q-1.065-2.125-2.525-4.52a33.987,33.987,0,0,0-3.589-4.785,37.639,37.639,0,0,0-4.52-4.786q-2.661-2.391-5.582-4.784t-6.513-4.918q-3.59-2.523-7.842-5.184t-9.039-5.449q-4.785-2.793-10.1-5.45c.706-.175,1.417-.354,2.127-.532a23,23,0,0,1,2.925-.931c1.063-.266,2.391-.573,3.987-.93q2.124-.53,4.519-1.2t5.05-1.2q2.394-.53,5.185-1.33t5.45-1.594a4.282,4.282,0,0,0,1.063-.133c.353-.088.8-.221,1.329-.4a4.243,4.243,0,0,0,1.064-.133,5.066,5.066,0,0,0,1.063-.4c.7-.175,1.461-.4,2.26-.665s1.549-.486,2.259-.664,1.416-.354,2.127-.532,1.416-.353,2.126-.531,1.371-.354,1.994-.533,1.284-.352,1.994-.531,1.37-.353,1.993-.532,1.2-.352,1.729-.531a3.884,3.884,0,0,0,1.461-.266c.441-.174.931-.354,1.463-.532a9.917,9.917,0,0,1,2.392-.664,9.578,9.578,0,0,0,1.861-.4q7.707,2.929,14.355,6.115a131.421,131.421,0,0,1,12.23,6.646,83.472,83.472,0,0,1,9.834,7.044,64.864,64.864,0,0,1,7.442,7.311,28.649,28.649,0,0,1,2.8,3.854q1.194,1.995,2.522,3.856,1.057,2.13,1.995,3.987a41.391,41.391,0,0,1,1.726,3.988,44.627,44.627,0,0,1,2.393,8.107,44,44,0,0,1,.8,8.375v2.924a.756.756,0,0,0-.268.532v.265a71.524,71.524,0,0,1-.93,7.444q-.669,3.726-1.727,7.443-1.064,3.457-2.527,7.045t-3.322,7.31q-1.863,3.457-3.587,6.912a62.761,62.761,0,0,1-3.856,6.646q-1.063,1.6-2.128,3.057a21.678,21.678,0,0,0-1.861,3.057q-1.064,1.334-2.124,2.792c-.71.976-1.424,1.906-2.129,2.791q-2.388,3.189-4.651,5.981t-4.388,5.184q-2.128,2.392-4.119,4.519t-3.855,3.987q-1.863,1.864-3.456,3.323t-2.393,2.26c-.709.711-1.328,1.329-1.86,1.862l36.153,61.674-58.218,5.582-28.976-57.154-10.633,57.154-46.788.266Z" style="fill:#9e120b"/><path d="M1252.432,1275.4a54.635,54.635,0,0,1-7.044-5.45,40.142,40.142,0,0,1-5.715-6.512,49.148,49.148,0,0,1-4.386-7.578,67.794,67.794,0,0,1-3.457-8.373,56.6,56.6,0,0,1-2.392-9.969,86.937,86.937,0,0,1-1.463-11.165q-.4-5.845-.4-12.495,0-5.844.266-12.229t1.062-13.291q.533-6.909,1.6-14.356t2.393-15.684q1.327-7.975,2.922-16.88t3.458-18.476q1.855-9.57,3.987-19.8t4.519-21.4h60.612q-2.661,11.432-5.052,21.931t-4.519,20.6q-2.131,9.838-4.121,19.274t-3.856,17.944q-1.861,8.51-3.322,16.482t-2.259,15.152q-1.065,7.446-1.463,13.956a120.006,120.006,0,0,0-.131,12.628q0,4.524.266,8.772a53.587,53.587,0,0,0,1.062,7.976q.8,3.725,1.86,7.177a34.4,34.4,0,0,0,2.659,6.381,26.928,26.928,0,0,0,3.323,5.847,46.83,46.83,0,0,0,4.387,5.052,27.172,27.172,0,0,0,5.582,4.253,45.442,45.442,0,0,0,6.646,3.19l27.116-201.239h59.547l-36.42,212.936H1314.24a.773.773,0,0,1-.532-.266h-52.9A49.37,49.37,0,0,1,1252.432,1275.4Z" style="fill:#9e120b"/><path d="M1409.406,1129.317l16.749-12.494H1404.62l10.1-48.914,108.462.266-5.848,42.8-45.459,3.456-8.506,46.788,45.989-1.33-6.38,36.42-47.054,4.253-6.113,41.471,45.459,2.924-6.382,35.091h-94.638Z" style="fill:#9e120b"/><path d="M1600.009,1233.26h47.85l-10.1,46.521h-47.32Zm49.579-20.868a.541.541,0,0,1-.4.132h-40.407a6.881,6.881,0,0,1-2.127-.265,3.983,3.983,0,0,1-1.2-.133c-.266-.088-.4-.221-.4-.4s.086-.838.264-1.993.441-2.791.8-4.919.839-4.826,1.462-8.107,1.283-7.133,1.993-11.564q1.061-6.381,2.261-13.292t2.258-14.355q1.328-7.179,2.659-14.887t2.659-15.95v-2.393a5.989,5.989,0,0,1,.132-1.2,4.693,4.693,0,0,1,.4-1.2,6,6,0,0,1,.132-1.2,4.777,4.777,0,0,1,.4-1.2,5.989,5.989,0,0,1,.132-1.2,4.762,4.762,0,0,1,.4-1.2c.175-1.063.355-2.127.532-3.19s.353-2.128.533-3.191.352-2.127.532-3.19.352-2.127.53-3.19a17.829,17.829,0,0,1,.266-2.924q.262-1.595.532-3.19t.532-3.19c.173-1.063.353-2.127.532-3.191s.353-2.126.53-3.189.353-2.035.533-2.924a16.819,16.819,0,0,1,.266-3.057q.263-1.459.532-3.058c.173-1.063.353-2.08.53-3.057s.355-1.9.532-2.791a17.1,17.1,0,0,1,.266-3.057q.263-1.458.532-2.791l55.561-.8-34.561,144.615A1.072,1.072,0,0,1,1649.588,1212.392Z" style="fill:#9e120b"/><path d="M184.094,764.743l92.558-5.468c0,.565-.072,1.472-.211,2.734a43.869,43.869,0,0,1-1.051,5.259q-.424,2.947-1.262,7.993t-1.683,11.781q-.849,6.733-1.893,13.673t-2.314,14.094q-1.262,7.573-2.315,15.146t-1.892,15.987A2.589,2.589,0,0,0,263.4,847a4.5,4.5,0,0,0-.211,1.472v1.683a1.422,1.422,0,0,0-.421,1.051v3.155q-.848,5.475-1.683,11.15T259.4,876.655q-.848,5.472-1.472,10.727t-1.472,10.309q-.425,5.472-1.053,10.1t-1.472,8.835q-.424,4.209-.841,7.993t-.842,7.152q5.888-9.672,11.15-18.721t10.307-17.039q5.049-8.412,10.1-16.2t9.677-14.515q4.625-7.149,7.993-13.673a82.986,82.986,0,0,0,5.47-13.253,105.2,105.2,0,0,0,3.365-12.621,62.034,62.034,0,0,0,1.262-12.2v-3.787a1.192,1.192,0,0,1-.419-.842v-2.1c-.283-.276-.422-.486-.422-.63v-1.894c-.282-.275-.421-.486-.421-.631v-.63a10.965,10.965,0,0,1-.631-1.474,3.326,3.326,0,0,1-.209-1.051,10.692,10.692,0,0,1-.632-1.473,4.509,4.509,0,0,1-.211-1.472,11.063,11.063,0,0,1-.631-1.472,3.337,3.337,0,0,1-.209-1.053,10.738,10.738,0,0,1-.632-1.472,2.744,2.744,0,0,0-.631-1.051q-1.685-3.364-4-7.153a53.771,53.771,0,0,0-5.68-7.573,59.661,59.661,0,0,0-7.152-7.574q-4.212-3.784-8.836-7.571t-10.307-7.784q-5.681-3.993-12.411-8.2t-14.305-8.624q-7.572-4.42-15.987-8.625c1.117-.277,2.242-.56,3.365-.842a36.353,36.353,0,0,1,4.629-1.472c1.683-.422,3.785-.908,6.31-1.473q3.362-.838,7.153-1.893t7.992-1.893q3.787-.837,8.206-2.1t8.624-2.524a6.777,6.777,0,0,0,1.683-.21c.558-.139,1.262-.349,2.1-.632a6.742,6.742,0,0,0,1.683-.21,8.135,8.135,0,0,0,1.683-.63c1.116-.278,2.312-.632,3.576-1.053s2.451-.769,3.576-1.051,2.241-.56,3.365-.843,2.241-.558,3.366-.84,2.169-.56,3.155-.842,2.032-.559,3.155-.841,2.169-.56,3.155-.842,1.894-.558,2.736-.841a6.13,6.13,0,0,0,2.313-.421c.7-.276,1.474-.56,2.314-.842a15.8,15.8,0,0,1,3.787-1.051,15.233,15.233,0,0,0,2.944-.632q12.2,4.635,22.719,9.677A207.916,207.916,0,0,1,360.8,725.617a131.58,131.58,0,0,1,15.566,11.148,103.144,103.144,0,0,1,11.782,11.571,44.787,44.787,0,0,1,4.416,6.1q1.893,3.154,4,6.1,1.677,3.372,3.155,6.31a66.784,66.784,0,0,1,2.735,6.312,70.526,70.526,0,0,1,3.785,12.83,69.535,69.535,0,0,1,1.264,13.254v4.627a1.214,1.214,0,0,0-.421.842v.42a114.214,114.214,0,0,1-1.473,11.781,120.329,120.329,0,0,1-2.735,11.78q-1.685,5.472-4,11.149t-5.259,11.57q-2.951,5.472-5.68,10.939a98.567,98.567,0,0,1-6.1,10.518q-1.684,2.523-3.366,4.837a34.1,34.1,0,0,0-2.944,4.838q-1.687,2.111-3.366,4.419t-3.365,4.416q-3.788,5.049-7.363,9.467t-6.942,8.2q-3.372,3.788-6.521,7.152t-6.1,6.31q-2.947,2.951-5.469,5.259t-3.787,3.576q-1.685,1.688-2.945,2.946l57.217,97.606-92.136,8.835-45.859-90.453-16.828,90.453-74.046.422Z" style="fill:#9e120b"/><path d="M614.058,733.189h92.557l-8.835,251.59L764.255,705h87.928l-90.032,336.153H614.058Z" style="fill:#9e120b"/><path d="M874.058,803.03l26.5-19.775H866.485l15.987-77.412,171.653.421L1044.869,774l-71.943,5.47-13.463,74.046,72.784-2.1-10.1,57.638-74.466,6.731-9.678,65.633,71.943,4.627-10.1,55.536H850.076Z" style="fill:#9e120b"/><path d="M1090.3,705.843l105.179.421a37.821,37.821,0,0,1-.63,4.417q-.632,3.579-1.893,10.307t-2.947,16.83q-1.685,10.1-3.785,23.559-1.263,6.737-2.525,13.675t-2.1,14.094q-1.26,7.157-2.523,14.3t-2.525,14.305q-2.524,14.731-5.259,30.081t-5.68,31.344q-2.948,15.571-5.47,30.5t-5.048,29.24q-2.524,14.307-5.048,27.556t-4.628,25.876q-2.523,13.044-4.208,22.508t-2.944,15.777q-1.263,6.309-2.525,11.779h-30.712a12.991,12.991,0,0,0-3.155-.421h-45.226Z" style="fill:#9e120b"/><path d="M1232.5,706.264H1336.42l-47.963,273.467a1.4,1.4,0,0,0,.632,1.261,4.451,4.451,0,0,0,2.314.422q1.261,0,3.785.21t5.47.63a15.238,15.238,0,0,0,2.736.632,21.735,21.735,0,0,0,3.155.21h6.731a27.422,27.422,0,0,0,3.365.632,26.349,26.349,0,0,0,3.366.209h3.366a4.115,4.115,0,0,0,1.893.421h5.259a.371.371,0,0,0,.421.421h2.525a3.343,3.343,0,0,0,1.472.421h4.838a15.463,15.463,0,0,1,2.524.211,14.946,14.946,0,0,0,2.525.209,7.251,7.251,0,0,0,2.1.631,14.7,14.7,0,0,0,2.523.211,40.937,40.937,0,0,0,4.418.632,27.8,27.8,0,0,1,4,.63q2.1.423,3.365.631a14.928,14.928,0,0,0,2.524.211,4.66,4.66,0,0,0,2.1.421v.841a1.212,1.212,0,0,0-.422.842v1.261a15.251,15.251,0,0,0-.63,2.734q-.217,1.479-.631,3.577a41.193,41.193,0,0,0-.632,4.418,15.846,15.846,0,0,1-1.051,4.417q-.424,2.111-.842,4.418t-.841,4.417v.842q-.423,2.524-.842,5.048t-.841,4.628c-.282,1.407-.565,2.735-.842,4s-.565,2.6-.841,4-.564,2.6-.842,3.577a8.981,8.981,0,0,0-.419,2.312,1.7,1.7,0,0,0-.421,1.264H1195.057Z" style="fill:#9e120b"/><path d="M1403.733,706.264h103.918l-47.962,273.467a1.4,1.4,0,0,0,.631,1.261,4.455,4.455,0,0,0,2.315.422q1.26,0,3.785.21t5.469.63a15.258,15.258,0,0,0,2.736.632,21.735,21.735,0,0,0,3.155.21h6.731a27.4,27.4,0,0,0,3.366.632,26.349,26.349,0,0,0,3.366.209h3.365a4.122,4.122,0,0,0,1.894.421h5.258a.371.371,0,0,0,.422.421h2.525a3.343,3.343,0,0,0,1.472.421h4.838a15.451,15.451,0,0,1,2.523.211,14.954,14.954,0,0,0,2.525.209,7.261,7.261,0,0,0,2.1.631,14.721,14.721,0,0,0,2.523.211,40.992,40.992,0,0,0,4.419.632,27.807,27.807,0,0,1,4,.63q2.1.423,3.366.631a14.917,14.917,0,0,0,2.523.211,4.663,4.663,0,0,0,2.1.421v.841a1.215,1.215,0,0,0-.421.842v1.261a15.166,15.166,0,0,0-.63,2.734q-.219,1.479-.632,3.577a41.2,41.2,0,0,0-.631,4.418,15.813,15.813,0,0,1-1.052,4.417q-.423,2.111-.842,4.418c-.282,1.544-.565,3.016-.84,4.417v.842q-.425,2.524-.843,5.048t-.84,4.628c-.283,1.407-.565,2.735-.842,4s-.565,2.6-.841,4-.565,2.6-.842,3.577a8.947,8.947,0,0,0-.42,2.312,1.7,1.7,0,0,0-.421,1.264H1366.289Z" style="fill:#9e120b"/><path d="M1561.924,803.03l26.5-19.775H1554.35l15.988-77.412,171.652.421L1732.734,774l-71.943,5.47-13.462,74.046,72.783-2.1-10.1,57.638-74.466,6.731-9.677,65.633,71.943,4.627-10.1,55.536H1537.942Z" style="fill:#9e120b"/><path d="M432.733,803.03l26.5-19.775H425.159l15.988-77.412,171.652.421L603.543,774l-71.943,5.47-13.462,74.046,72.783-2.1-10.1,57.638-74.466,6.731-9.677,65.633,71.943,4.627-10.1,55.536H408.751Z" style="fill:#9e120b"/><path d="M497.488,721.22l-28.816-23.837,63.085-77.43,54.784,34.862Z" style="fill:#9e120b"/></g></g></g></svg>